<?xml version="1.0" encoding="utf-8"?>
<!-- Generator: Adobe Illustrator 20.0.0, SVG Export Plug-In . SVG Version: 6.00 Build 0)  -->
<svg version="1.1" xmlns="http://www.w3.org/2000/svg" xmlns:xlink="http://www.w3.org/1999/xlink" x="0px" y="0px" width="600px"
	 height="462px" viewBox="0 0 600 462" style="enable-background:new 0 0 600 462;" xml:space="preserve">
<style type="text/css">
	.st0{fill:#5F7372;}
	.st1{fill:#738584;}
	.st2{fill:#839392;}
	.st3{fill:#4E6362;}
	.st4{fill:#BEBBAA;}
	.st5{fill:#DBD8CB;}
	.st6{fill:#EAE9E1;}
	.st7{fill:#62605A;}
	.st8{fill:#A46D3F;}
	.st9{fill:#915A2C;}
	.st10{fill:#33312F;}
	.st11{fill:#D8D4BF;}
	.st12{fill:#EAE8DC;}
	.st13{fill:#3F3C3A;}
	.st14{fill:#91674E;}
	.st15{fill:#C5C0A9;}
	.st16{fill:#383733;}
	.st17{fill:#F2F0E8;}
	.st18{fill:#2A2625;}
	.st19{fill:#464541;}
	.st20{fill:#4B4A46;}
	.st21{fill:#D1D0C7;}
	.st22{fill:#B3B2AA;}
</style>
<g id="back">
	<rect y="-2" class="st0" width="200" height="462"/>
	<rect x="200" y="-2" class="st1" width="200" height="462"/>
	<rect x="400" y="-2" class="st2" width="200" height="462"/>
</g>
<g id="floor">
	<rect y="413" class="st3" width="200" height="49"/>
	<rect x="200" y="413" class="st0" width="200" height="49"/>
	<rect x="400" y="413" class="st1" width="200" height="49"/>
</g>
<g id="shadow">
	<path class="st1" d="M600,380V413H439.2l0,0l2.5-21h4.9v-0.7l-1.5,0.2l-0.1-0.9l1.6-0.2v-0.5l-2-0.2l0.1-0.9l1.8,0.2v-0.6h-1.6
		v-0.9h-0.8v-3.9h6.2v-37l-25-25l0,0l-1.8-2.2v-20.4c0-0.9,0-1.7,0.1-2.6c0-0.3-0.1-0.5-0.1-0.8v-12c0-2.5,2-4.5,4.5-4.5h5.7
		c0.1-0.2,0.3-0.4,0.4-0.6c0.4-0.4,1.1-0.7,1.7-0.7h0.1c0.9-1.9,2.8-3.2,5-3.2c2.7,0,5,1.9,5.5,4.5h1.4c1.4,0,2.7,0.7,3.5,1.7
		l42.6,42.6c5-0.2,10.7-0.3,16.3-0.3c16,0,32.4,1.1,33.7,1.2l0.1,0.1L600,380z"/>
	<path class="st3" d="M200,107.9v305H42.9l-0.1-0.1l2.5-21h4.9v-0.7l-1.5,0.2l-0.1-0.9l1.6-0.2v-0.5l-2-0.2l0.1-0.9l1.8,0.2v-0.6
		h-1.6v-0.9h-0.8v-3.9H54v-36.8l-25.3-25.3l-0.1,0.1l-1.8-2.2v-20.4c0-0.9,0-1.7,0.1-2.6c-0.1-0.3-0.1-0.5-0.1-0.8v-12
		c0-2.5,2-4.5,4.5-4.5H37c0.1-0.2,0.3-0.4,0.4-0.6c0.4-0.4,1.1-0.7,1.7-0.7h0.1c0.9-1.9,2.8-3.2,5-3.2c2.7,0,5,1.9,5.5,4.5h1.5
		c1.5,0,2.8,0.7,3.6,1.9l49.4,49.4h1v-64.8h-1.2v-4.2h1.2v-82.7h-1.2v-4.2h1.2v-26.3l-31.1-31.2c-3.4-2.7-5.2-7.3-6.6-13.2
		c-4.2-17.3-5.4-38.3-5.4-38.3c0-5.5,21.1-5.6,47.2-5.6c22.4,0,41.2,0,46,3.5c0,0,0,0,0,0l0.8,0.8c0,0,0,0,0,0L200,107.9z"/>
	<path class="st0" d="M400,313.3V413H277.2l-0.1-0.1c0-1.4,0.6-2.7,1.5-3.6c1-1,2.3-1.5,3.7-1.5h0.2l0.7-12.3
		c-0.7-0.4-1.3-0.8-2-1.3c-0.2-0.2-0.4-0.3-0.6-0.5c-0.7-0.6-1.4-1.1-2.1-1.7c-0.2-0.2-0.4-0.4-0.6-0.6c-0.3-0.3-0.5-0.5-0.8-0.8
		c0,0,0,0,0,0c-0.5-0.5-0.9-1.1-1.4-1.6c-0.2-0.3-0.4-0.5-0.6-0.8c-0.4-0.5-0.7-1.1-1.1-1.7c-0.2-0.3-0.4-0.6-0.5-0.9c0,0,0,0,0,0
		c-1.3-2.4-2.4-5.3-3.2-8.7L215,321.4l0,0l-1.8-2.2v-20.4c0-0.9,0-1.7,0.1-2.6c-0.1-0.3-0.1-0.5-0.1-0.8v-12c0-2.5,2-4.5,4.5-4.5
		h5.7c0.1-0.2,0.3-0.4,0.4-0.6c0.5-0.4,1.1-0.7,1.7-0.7h0.1c0.9-1.9,2.8-3.2,5-3.2c2.7,0,5,1.9,5.5,4.5h1.5c1.4,0,2.7,0.7,3.5,1.7
		l18.9,18.9c-0.1-0.9-0.1-1.8-0.2-2.8c0-0.7-0.1-1.4-0.1-2.1c-1.1-18.4-0.7-39.7-0.7-39.7c0-5.4,17.3-5.5,40.9-5.5h-4
		c0-0.8,0.6-1.4,1.4-1.4h5.3c0.8,0,1.4,0.6,1.4,1.4c17.7,0,31.3,0.3,35.5,3.2c0.1,0.1,0.2,0.1,0.3,0.2L400,313.3z"/>
</g>
<g id="toilet">
	<g>
		<path class="st4" d="M331.8,349.4c-12.7,0-22.4,0-31.8,0c-9.4,0-19.2,0-31.8,0c0,1.3,0,2.6,0,3.8h63.6
			C331.8,352,331.8,350.7,331.8,349.4z"/>
		<path class="st5" d="M331.8,353.2c0,0.8,0,1.6,0,2.4c0,0.4,0,0.8,0,1.2c0,0.8-0.1,1.5-0.1,2.3c0,0.4,0,0.7-0.1,1.1
			c0,0.7-0.1,1.5-0.1,2.2c-0.1,1.3-0.2,2.5-0.3,3.6c-0.1,1.4-0.3,2.7-0.4,4c0,0.3-0.1,0.6-0.1,0.9c-0.2,1.5-0.4,2.8-0.7,4.1
			c-0.1,0.5-0.2,0.9-0.3,1.3c-0.1,0.5-0.2,1-0.4,1.5c0,0.2-0.1,0.4-0.1,0.5c-0.3,1-0.5,1.9-0.8,2.7c-0.1,0.3-0.2,0.6-0.3,0.9
			c0,0.1-0.1,0.1-0.1,0.2c-0.1,0.3-0.3,0.7-0.4,1c-0.1,0.3-0.3,0.6-0.4,1c-0.1,0.3-0.2,0.5-0.4,0.8c-0.1,0.1-0.1,0.2-0.2,0.3
			c-0.1,0.2-0.2,0.4-0.3,0.6c-0.1,0.2-0.2,0.4-0.4,0.7c-0.2,0.3-0.3,0.5-0.5,0.8c-0.1,0.2-0.3,0.5-0.4,0.6c0,0.1-0.1,0.1-0.2,0.2
			c-0.1,0.2-0.3,0.4-0.4,0.6c-0.2,0.2-0.4,0.5-0.6,0.7c0,0,0,0,0,0c-0.2,0.3-0.5,0.6-0.7,0.9c-0.2,0.3-0.5,0.5-0.7,0.7
			c-0.3,0.3-0.6,0.6-0.9,0.9c-0.3,0.3-0.6,0.5-0.9,0.8c-0.3,0.2-0.6,0.5-0.9,0.7c-0.3,0.2-0.6,0.5-0.9,0.7c-0.6,0.5-1.3,0.9-2,1.3
			l0.7,12.3l0.3,4.8h-35.3l0.3-4.8l0.7-12.3c-0.7-0.4-1.3-0.8-2-1.3c-0.2-0.2-0.4-0.3-0.6-0.5c-0.7-0.6-1.4-1.1-2.1-1.7
			c-0.2-0.2-0.4-0.4-0.6-0.6c-0.3-0.3-0.5-0.5-0.8-0.8c0,0,0,0,0,0c-0.5-0.5-0.9-1.1-1.4-1.6c-0.2-0.3-0.4-0.5-0.6-0.8
			c-0.4-0.5-0.7-1.1-1.1-1.7c-0.2-0.3-0.3-0.6-0.5-0.9c-1.3-2.4-2.4-5.3-3.2-8.7c-1.3-5.4-2-12.3-2.2-21.2v0c0-0.8,0-1.6,0-2.4
			H331.8z"/>
	</g>
	<path class="st4" d="M331.8,349.4c0,0.7,0,1.3,0,1.9c0,0.6,0,1.3,0,1.9c0,0.8,0,1.6,0,2.4c0,0.4,0,0.8,0,1.2c0,0.8-0.1,1.5-0.1,2.3
		c0,0.4,0,0.7-0.1,1.1c0,0.7-0.1,1.5-0.1,2.2c-0.1,1.3-0.2,2.5-0.3,3.6c-0.1,1.4-0.3,2.7-0.4,4c0,0.3-0.1,0.6-0.1,0.9
		c-0.2,1.5-0.4,2.8-0.7,4.1c-0.1,0.5-0.2,0.9-0.3,1.3c-0.1,0.5-0.2,1-0.4,1.5c0,0.2-0.1,0.4-0.1,0.5c-0.3,1-0.5,1.9-0.8,2.7
		c-0.1,0.3-0.2,0.6-0.3,0.9c0,0.1-0.1,0.1-0.1,0.2c-0.1,0.3-0.3,0.7-0.4,1c-0.1,0.3-0.3,0.6-0.4,1c-0.1,0.3-0.2,0.5-0.4,0.8
		c-0.1,0.1-0.1,0.2-0.2,0.3c-0.1,0.2-0.2,0.4-0.3,0.6c-0.1,0.2-0.2,0.4-0.4,0.7c-0.2,0.3-0.3,0.5-0.5,0.8c-0.1,0.2-0.3,0.5-0.4,0.6
		c0,0.1-0.1,0.1-0.2,0.2c-0.1,0.2-0.3,0.4-0.4,0.6c-0.2,0.2-0.4,0.5-0.6,0.7c0,0,0,0,0,0c-0.2,0.3-0.5,0.6-0.7,0.9
		c-0.2,0.3-0.5,0.5-0.7,0.7c-0.3,0.3-0.6,0.6-0.9,0.9c-0.3,0.3-0.6,0.5-0.9,0.8c-0.3,0.2-0.6,0.5-0.9,0.7c-0.3,0.2-0.6,0.5-0.9,0.7
		c-0.6,0.5-1.3,0.9-2,1.3l0.7,12.3l0.3,4.8h-35.3l0.3-4.8l0.7-12.3c-0.7-0.4-1.3-0.8-2-1.3c-0.2-0.2-0.4-0.3-0.6-0.5
		c-0.7-0.6-1.4-1.1-2.1-1.7c-0.2-0.2-0.4-0.4-0.6-0.6c-0.3-0.3-0.5-0.5-0.8-0.8c0,0,0,0,0,0c-0.5-0.5-0.9-1.1-1.4-1.6
		c-0.2-0.3-0.4-0.5-0.6-0.8c-0.4-0.5-0.7-1.1-1.1-1.7c-0.2-0.3-0.4-0.6-0.5-0.9c0,0,0,0,0,0c6.4,5.8,22.7,10.3,35.6,0.6
		c9.4-7.1,10.5-20.8,10.6-32.9c0-1.3,0-2.6,0-3.8H331.8z"/>
	<path class="st6" d="M335.6,345.6c0,2.1-1.7,3.8-3.8,3.8h-63.7c-2.1,0-3.8-1.7-3.8-3.8v-8.7c0-2.1,1.7-3.8,3.8-3.8h63.7
		c2.1,0,3.8,1.7,3.8,3.8V345.6z"/>
	<path class="st4" d="M322.9,413H277v0c0,0,0-0.1,0-0.1c0-1.4,0.6-2.7,1.5-3.6c1-1,2.3-1.5,3.7-1.5h35.3
		C320.5,407.7,322.9,410,322.9,413z"/>
	<path class="st5" d="M337.9,313.9c-2,9.1-4.9,15-12.5,15.5c-0.3,0-0.6,0-0.9,0h-49.1c-0.3,0-0.6,0-0.9,0
		c-7.6-0.4-10.5-6.4-12.5-15.5c-0.2-0.8-0.3-1.6-0.5-2.4c-0.3-1.9-0.6-4-0.9-6.3c-0.2-1.8-0.4-3.6-0.5-5.6c-0.1-0.9-0.1-1.8-0.2-2.8
		c0-0.7-0.1-1.4-0.1-2.1c-1.1-18.4-0.7-39.7-0.7-39.7h81.8C340.9,255.1,341.7,296.9,337.9,313.9z"/>
	<g>
		<path class="st6" d="M340.9,255.1H259c0-5.4,17.3-5.5,40.9-5.5h4c17.7,0,31.3,0.3,35.5,3.2c0.1,0.1,0.2,0.1,0.3,0.2
			c0.3,0.2,0.5,0.4,0.6,0.6c0.1,0.1,0.1,0.1,0.2,0.2C340.8,254.2,340.9,254.6,340.9,255.1z"/>
	</g>
	<path class="st7" d="M304,249.6h-8c0-0.8,0.6-1.4,1.4-1.4h5.3C303.4,248.3,304,248.9,304,249.6z"/>
	<path class="st8" d="M299.7,258.3c-17.9,0-32.5,18.1-32.5,40.5c0,16,7.4,23.7,18.1,26.8v3.8h8.1v-2.9h12.5v2.9h8.1v-3.8
		c10.7-3.1,18.1-10.8,18.1-26.8C332.1,276.4,317.6,258.3,299.7,258.3z"/>
	<rect x="268.8" y="329.3" class="st9" width="62.4" height="3.8"/>
	<g>
		<path class="st4" d="M141.9,343.1c-12.9,0-22.8,0-32.4,0c-9.6,0-19.5,0-32.4,0c0,1.3,0,1.6,0,2.9h64.8
			C141.8,344.7,141.9,344.5,141.9,343.1z"/>
		<path class="st5" d="M141.8,346H77c0.4,26.7,2.5,36.2,13.3,42.8l1.1,23.6h36l1.1-23.6C139.3,382.2,141.5,372.7,141.8,346z"/>
	</g>
	<path class="st10" d="M164.8,75.3c0,0.5-0.4,0.9-0.9,0.9H154c-0.5,0-0.9-0.4-0.9-0.9v-0.6c0-0.5,0.4-0.9,0.9-0.9h9.9
		c0.5,0,0.9,0.4,0.9,0.9V75.3z"/>
	<path class="st4" d="M141.9,343.1c-4.1,0-6.9,0-12.2,0c0,10.4-0.3,28.3-10.9,36.3c-13.2,9.9-31,4.7-38.1-1.1
		c2.2,5.3,5.4,8.5,9.7,10.5l1.1,23.6h36l1.1-23.6C140,382.4,141.9,370.1,141.9,343.1z"/>
	<path class="st6" d="M145.7,339.3c0,2.1-1.7,3.9-3.9,3.9H77c-2.1,0-3.9-1.7-3.9-3.9v-3.8c0-2.1,1.7-3.9,3.9-3.9h64.9
		c2.1,0,3.9,1.7,3.9,3.9V339.3z"/>
	<path class="st5" d="M132.8,413c-9.3,0-30.7,0-46.7,0l0,0c0-3,2.4-5.4,5.4-5.4h35.9C130.4,407.6,132.8,410,132.8,413L132.8,413z"/>
	<path class="st11" d="M156.6,65.4c0,0-0.2,3.3-0.7,8.4c-0.1,0.8-0.2,1.6-0.3,2.5c-0.8,7.6-2.2,18.1-4.4,27.5
		c-2.3,9.6-5.6,15.8-14.8,15.8H82.4c-3.5,0-6.1-0.9-8.2-2.6c-3.4-2.7-5.2-7.3-6.6-13.2c-4.2-17.3-5.4-38.3-5.4-38.3H156.6z"/>
	<g>
		<path class="st12" d="M156.6,65.4H62.2c0-5.5,21.1-5.6,47.2-5.6c22.4,0,41.2,0,46,3.5c0,0,0,0,0,0c0.3,0.3,0.6,0.5,0.8,0.8
			c0,0,0,0,0,0C156.5,64.5,156.6,64.9,156.6,65.4z"/>
	</g>
	<rect x="105.3" y="119.5" class="st13" width="8.2" height="212.1"/>
	<g>
		<rect x="161.2" y="76.2" class="st13" width="1.8" height="157.8"/>
	</g>
	<path class="st14" d="M164.8,243.8c0,0.5-0.4,0.9-0.9,0.9h-3.6c-0.5,0-0.9-0.4-0.9-0.9v-19.7c0-0.5,0.4-0.9,0.9-0.9h3.6
		c0.5,0,0.9,0.4,0.9,0.9V243.8z"/>
	<rect x="104.2" y="119.5" class="st10" width="10.5" height="4.2"/>
	<rect x="104.2" y="261.3" class="st10" width="10.5" height="4.2"/>
	<rect x="104.2" y="174.4" class="st10" width="10.5" height="4.2"/>
	<rect x="104.2" y="330.2" class="st10" width="10.5" height="1.3"/>
	<g>
		<path class="st7" d="M446.7,280.2c0,0.4,0,0.8-0.1,1.1c-0.5,2.5-2.8,4.5-5.5,4.5c-2.2,0-4.1-1.3-5-3.2c-0.2-0.4-0.4-0.9-0.5-1.3
			c-0.1-0.4-0.1-0.8-0.1-1.1c0-0.4,0-0.8,0.1-1.1c0.1-0.5,0.3-0.9,0.5-1.3c0.9-1.9,2.8-3.2,5-3.2c2.7,0,5,1.9,5.5,4.5
			C446.7,279.4,446.7,279.8,446.7,280.2z"/>
		<g>
			<path class="st15" d="M448.9,287.4v22.9c1.9,0,3.5-5.1,3.5-11.5C452.4,292.5,450.8,287.4,448.9,287.4z"/>
		</g>
		<g>
			<path class="st16" d="M451.6,280.7c-0.8-1-2.1-1.7-3.5-1.7h-20c-2.5,0-4.5,2-4.5,4.5v12c0,0.3,0,0.5,0.1,0.8
				c0.2,1,0.7,1.9,1.4,2.6c0.8,0.7,1.8,1.1,3,1.1h20c0.3,0,0.6,0,0.8-0.1c0.4-0.1,0.8-0.2,1.1-0.4c1-0.5,1.8-1.3,2.2-2.4
				c0-0.1,0.1-0.2,0.1-0.3c0.1-0.4,0.2-0.9,0.2-1.4v-12C452.5,282.5,452.2,281.5,451.6,280.7z M450.3,295.5c0,0.5-0.2,0.9-0.4,1.3
				c0,0,0,0,0,0c-0.2,0.3-0.6,0.6-1,0.8c-0.3,0.1-0.5,0.2-0.8,0.2h-20c-1.2,0-2.2-1-2.2-2.2v-12c0-1.2,1-2.2,2.2-2.2h20
				c0.5,0,1,0.2,1.3,0.5c0.5,0.4,0.8,1,0.8,1.7V295.5z"/>
		</g>
		<path class="st11" d="M423.5,298.9c0,6.3,1.6,11.5,3.5,11.5h21.9v-11.5H423.5z"/>
		<path class="st17" d="M448.9,287.4l-1,5.4l-0.7,3.7l-0.9,1.2l-0.9,1.2v20.4l-1.8,2.2l-1.8-2.2l-1.2,1.5l-0.6,0.7l-1.8-2.2
			l-1.8,2.2l-1.8-2.2l-1.8,2.2l-1.8-2.2l-1.8,2.2l-1.7-2l-0.1-0.2l-1.6,1.9l-0.2,0.2l0,0l-1.8-2.2v-20.4c0-0.9,0-1.7,0.1-2.6
			c0.3-3.8,1.1-6.9,2.2-8.2c0.4-0.4,0.8-0.7,1.2-0.7H448.9z"/>
		<path class="st15" d="M445.4,298.9c0,6.3,1.6,11.5,3.5,11.5v-22.9C447,287.4,445.4,292.5,445.4,298.9z"/>
		<ellipse class="st16" cx="448.9" cy="298.9" rx="1.1" ry="3.7"/>
		<path class="st16" d="M442.6,280.2c0,0.4-0.1,0.8-0.3,1.1c-0.4,0.8-1.2,1.3-2.2,1.3h-4.2c-0.9,0-1.8-0.5-2.2-1.3
			c-0.2-0.3-0.3-0.7-0.3-1.1c0-0.4,0.1-0.8,0.3-1.1c0.1-0.2,0.3-0.4,0.4-0.6c0.4-0.4,1.1-0.7,1.7-0.7h4.2c0.9,0,1.8,0.5,2.2,1.3
			C442.5,279.3,442.6,279.7,442.6,280.2z"/>
	</g>
	<g>
		<path class="st18" d="M236.3,280.2c0,0.4,0,0.8-0.1,1.1c-0.5,2.5-2.8,4.5-5.5,4.5c-2.2,0-4.1-1.3-5-3.2c-0.2-0.4-0.4-0.9-0.5-1.3
			c-0.1-0.4-0.1-0.8-0.1-1.1c0-0.4,0-0.8,0.1-1.1c0.1-0.5,0.3-0.9,0.5-1.3c0.9-1.9,2.8-3.2,5-3.2c2.7,0,5,1.9,5.5,4.5
			C236.3,279.4,236.3,279.8,236.3,280.2z"/>
		<g>
			<path class="st15" d="M238.5,287.4v22.9c1.9,0,3.5-5.1,3.5-11.5C242,292.5,240.4,287.4,238.5,287.4z"/>
		</g>
		<g>
			<path class="st19" d="M241.2,280.7c-0.8-1-2.1-1.7-3.5-1.7h-20.1c-2.5,0-4.5,2-4.5,4.5v12c0,0.3,0,0.5,0.1,0.8
				c0.2,1,0.7,1.9,1.4,2.6c0.8,0.7,1.8,1.1,3,1.1h20.1c0.3,0,0.6,0,0.8-0.1c0.4-0.1,0.8-0.2,1.1-0.4c1.1-0.5,2-1.5,2.3-2.7
				c0.1-0.4,0.2-0.9,0.2-1.4v-12C242.2,282.4,241.8,281.5,241.2,280.7z M239.9,295.5c0,0.5-0.1,0.9-0.4,1.3c0,0,0,0,0,0
				c-0.2,0.3-0.6,0.6-1,0.8c-0.3,0.1-0.5,0.2-0.8,0.2h-20.1c-1.2,0-2.2-1-2.2-2.2v-12c0-1.2,1-2.2,2.2-2.2h20.1
				c0.6,0,1.2,0.3,1.6,0.7c0.4,0.4,0.6,0.9,0.6,1.5V295.5z"/>
		</g>
		<path class="st11" d="M213.1,298.9c0,6.3,1.6,11.5,3.5,11.5h21.9v-11.5H213.1z"/>
		<path class="st17" d="M238.5,287.4l-1.8,9.1l-0.9,1.2l-0.9,1.2v20.4l-1.8,2.2l-1.8-2.2l-1.8,2.2l-1.8-2.2l-1.8,2.2l-1.8-2.2
			l-1.8,2.2l-1.8-2.2l-1.8,2.2l-1.7-2l-0.1-0.2l-1.6,1.9l-0.2,0.3l0,0l-1.8-2.2v-20.4c0-0.9,0-1.7,0.1-2.6c0.3-3.8,1.1-6.9,2.2-8.2
			c0.4-0.4,0.8-0.7,1.2-0.7H238.5z"/>
		<path class="st15" d="M235,298.9c0,6.3,1.6,11.5,3.5,11.5v-22.9C236.6,287.4,235,292.5,235,298.9z"/>
		<ellipse class="st19" cx="238.5" cy="298.9" rx="1.1" ry="3.7"/>
		<path class="st19" d="M232.2,280.2c0,0.4-0.1,0.8-0.3,1.1c-0.4,0.8-1.2,1.3-2.2,1.3h-4.2c-0.9,0-1.8-0.5-2.2-1.3
			c-0.2-0.3-0.3-0.7-0.3-1.1c0-0.4,0.1-0.8,0.3-1.1c0.1-0.2,0.3-0.4,0.4-0.6c0.5-0.4,1.1-0.7,1.7-0.7h4.2c0.9,0,1.8,0.5,2.2,1.3
			C232.1,279.3,232.2,279.7,232.2,280.2z"/>
	</g>
	<g>
		<path class="st18" d="M50,280.2c0,0.4,0,0.8-0.1,1.1c-0.5,2.5-2.8,4.5-5.5,4.5c-2.2,0-4.1-1.3-5-3.2c-0.2-0.4-0.4-0.9-0.5-1.3
			c-0.1-0.4-0.1-0.8-0.1-1.1c0-0.4,0-0.8,0.1-1.1c0.1-0.5,0.3-0.9,0.5-1.3c0.9-1.9,2.8-3.2,5-3.2c2.7,0,5,1.9,5.5,4.5
			C50,279.4,50,279.8,50,280.2z"/>
		<g>
			<path class="st15" d="M52.2,287.4v22.9c1.9,0,3.5-5.1,3.5-11.5C55.7,292.5,54.1,287.4,52.2,287.4z"/>
		</g>
		<g>
			<path class="st20" d="M55,280.9c-0.8-1.1-2.1-1.9-3.6-1.9h-20c-2.5,0-4.5,2-4.5,4.5v12c0,0.3,0,0.5,0.1,0.8
				c0.2,1,0.7,1.9,1.4,2.6c0.8,0.7,1.8,1.1,3,1.1h20c0.3,0,0.6,0,0.8-0.1c0.4-0.1,0.8-0.2,1.1-0.4c1.1-0.5,2-1.5,2.3-2.7
				c0.1-0.4,0.2-0.9,0.2-1.4v-12C55.8,282.5,55.5,281.6,55,280.9z M53.5,295.5c0,0.5-0.1,0.9-0.4,1.3c-0.2,0.3-0.6,0.6-0.9,0.8
				c-0.3,0.1-0.5,0.2-0.8,0.2h-20c-1.2,0-2.2-1-2.2-2.2v-12c0-1.2,1-2.2,2.2-2.2h20c0.5,0,0.9,0.2,1.3,0.4c0.5,0.4,0.9,1,0.9,1.8
				V295.5z"/>
		</g>
		<path class="st11" d="M26.8,298.9c0,6.3,1.6,11.5,3.5,11.5h21.9v-11.5H26.8z"/>
		<path class="st17" d="M52.2,287.4l-1.8,9.1l-0.9,1.2l-0.9,1.2v20.4l-1.8,2.2l-1.8-2.2l-1.8,2.2l-1.8-2.2l-1.8,2.2l-1.8-2.2
			l-1.8,2.2l-1.8-2.2l-1.8,2.2l-1.7-2.1l-0.1-0.1l-1,1.2l-0.7,0.9l-0.1,0.1l-1.8-2.2v-20.4c0-0.9,0-1.7,0.1-2.6
			c0.3-3.8,1.1-6.9,2.2-8.2c0.4-0.4,0.8-0.7,1.2-0.7H52.2z"/>
		<path class="st15" d="M48.7,298.9c0,6.3,1.6,11.5,3.5,11.5v-22.9C50.2,287.4,48.7,292.5,48.7,298.9z"/>
		<ellipse class="st19" cx="52.2" cy="298.9" rx="1.1" ry="3.7"/>
		<path class="st19" d="M45.9,280.2c0,0.4-0.1,0.8-0.3,1.1c-0.4,0.8-1.2,1.3-2.2,1.3h-4.2c-0.9,0-1.8-0.5-2.2-1.3
			c-0.2-0.3-0.3-0.7-0.3-1.1c0-0.4,0.1-0.8,0.3-1.1c0.1-0.2,0.3-0.4,0.4-0.6c0.4-0.4,1.1-0.7,1.7-0.7h4.2c0.9,0,1.8,0.5,2.2,1.3
			C45.8,279.3,45.9,279.7,45.9,280.2z"/>
	</g>
	<path class="st21" d="M510.5,331.5c-13.5,0-27.4,0-33.8,0c0,42.4,11.1,63.2,11.1,63.2s9.5,2.3,22.7,2.3c13.2,0,22.7-2.3,22.7-2.3
		s11.1-20.8,11.1-63.2C537.9,331.5,524,331.5,510.5,331.5z"/>
	<path class="st6" d="M508,331.5c-11.4,0-23.1,0-28.5,0c0,35.7,9.3,53.2,9.3,53.2s4.1,3.2,19.2,3.2c15.1,0,19.2-3.2,19.2-3.2
		s9.3-17.5,9.3-53.2C531.1,331.5,519.4,331.5,508,331.5z"/>
	<rect x="476.6" y="324.2" class="st22" width="67.6" height="7.3"/>
	<path class="st21" d="M544.3,324.2v5.7h-67.6v-5.7c0,0,0.9-0.1,2.4-0.2c3-0.2,8.5-0.5,15-0.8c5-0.2,10.7-0.3,16.3-0.3
		C526.4,323,542.8,324.1,544.3,324.2C544.2,324.2,544.3,324.2,544.3,324.2z"/>
	<rect x="485.9" y="207.9" class="st6" width="49" height="29.8"/>
	<path class="st22" d="M499.8,231.9c-5,0-9.1-4.1-9.1-9.1c0-5,4.1-9.1,9.1-9.1c5,0,9.1,4.1,9.1,9.1
		C508.9,227.8,504.8,231.9,499.8,231.9z"/>
	<path class="st22" d="M521.1,231.9c-5,0-9.1-4.1-9.1-9.1c0-5,4.1-9.1,9.1-9.1c5,0,9.1,4.1,9.1,9.1
		C530.2,227.8,526.1,231.9,521.1,231.9z"/>
	<circle class="st6" cx="499.8" cy="222.8" r="7.7"/>
	<circle class="st6" cx="521.1" cy="222.8" r="7.7"/>
	<g>
		<rect x="446.6" y="387.3" class="st6" width="11.4" height="4.9"/>
		<path class="st7" d="M454.1,339.2v44.3c0,1-0.8,1.9-1.9,1.9c-1,0-1.9-0.8-1.9-1.9v-44.3c0-1,0.8-1.9,1.9-1.9
			C453.3,337.4,454.1,338.2,454.1,339.2z"/>
		<rect x="444.2" y="383.4" class="st13" width="16.2" height="3.9"/>
		<rect x="444.9" y="387.3" class="st6" width="14.2" height="0.9"/>
		<polygon class="st6" points="459.5,389.9 457.9,390.1 457.6,390.1 453.3,390.6 446.6,391.2 445,391.4 445,390.5 446.6,390.3 
			448.9,390.1 453.3,389.6 457.9,389.1 459.4,389 		"/>
		<polygon class="st21" points="465.3,413 439.2,413 439.2,412.9 441.7,391.9 462.8,391.9 		"/>
		<polygon class="st6" points="459.5,390.3 459.4,391.3 457.9,391.1 453.3,390.6 448.9,390.1 446.6,389.8 444.6,389.6 444.7,388.6 
			446.6,388.8 453.3,389.6 457.6,390.1 457.9,390.2 		"/>
	</g>
	<g>
		<rect x="357.6" y="387.3" class="st6" width="11.4" height="4.9"/>
		<path class="st13" d="M365.1,383.5c0,1-0.8,1.9-1.9,1.9l0,0c-1,0-1.9-0.8-1.9-1.9v-55.3c0-1,0.8-1.9,1.9-1.9l0,0
			c1,0,1.9,0.8,1.9,1.9V383.5z"/>
		<rect x="355.2" y="383.4" class="st13" width="16.2" height="3.9"/>
		<rect x="355.9" y="387.3" class="st6" width="14.2" height="0.9"/>
		
			<rect x="356" y="389.7" transform="matrix(0.9947 -0.1025 0.1025 0.9947 -38.086 39.292)" class="st6" width="14.6" height="0.9"/>
		<polygon class="st21" points="373.8,391.9 352.6,391.9 350.2,413 376.3,413 		"/>
		
			<rect x="362.6" y="382.5" transform="matrix(0.1149 -0.9934 0.9934 0.1149 -66.0258 705.7864)" class="st6" width="0.9" height="14.9"/>
	</g>
	<g>
		<rect x="50.1" y="387.3" class="st6" width="11.4" height="4.9"/>
		<path class="st4" d="M57.7,338.2v45.3c0,1-0.8,1.9-1.9,1.9c-1,0-1.9-0.8-1.9-1.9v-45.3c0-1,0.8-1.9,1.9-1.9
			C56.9,336.4,57.7,337.2,57.7,338.2z"/>
		<rect x="47.7" y="383.4" class="st13" width="16.2" height="3.9"/>
		<rect x="48.5" y="387.3" class="st6" width="14.2" height="0.9"/>
		<polygon class="st6" points="63.1,389.9 61.5,390.1 61.2,390.1 56.8,390.6 50.1,391.2 48.6,391.4 48.5,390.5 50.1,390.3 
			52.5,390.1 56.9,389.6 61.5,389.1 63,389 		"/>
		<polygon class="st21" points="68.9,413 42.8,413 42.8,412.9 45.2,391.9 66.4,391.9 		"/>
		<polygon class="st6" points="63.1,390.3 63,391.3 61.5,391.1 56.8,390.6 52.5,390.1 50.1,389.8 48.2,389.6 48.3,388.6 50.1,388.8 
			56.9,389.6 61.2,390.1 61.5,390.2 		"/>
	</g>
</g>
</svg>
